<svg width="62" height="62" viewBox="0 0 62 62" fill="none" xmlns="http://www.w3.org/2000/svg">
<path d="M59 46L55.19 44.6182C54.0886 44.2188 52.882 44.2188 51.7806 44.6182L49.6753 45.3818C48.5739 45.7812 47.3673 45.7812 46.2659 45.3818L44.1606 44.6182C43.0592 44.2188 41.8526 44.2188 40.7512 44.6182L38.6459 45.3818C37.5445 45.7812 36.3379 45.7812 35.2365 45.3818L33.1312 44.6182C32.0298 44.2188 30.8231 44.2188 29.7218 44.6182L27.6165 45.3818C26.5151 45.7812 25.3084 45.7812 24.2071 45.3818L22.1017 44.6182C21.0004 44.2188 19.7937 44.2188 18.6924 44.6182L16.5336 45.4012C15.4648 45.7888 14.2958 45.8006 13.2194 45.4346L10.5937 44.5419C9.55975 44.1903 8.43912 44.187 7.40307 44.5323L3 46" stroke="black"/>
<path d="M4.82031 45.5L8.10031 36.1016H40.5003L31.02 44.4" stroke="black"/>
<path d="M10.4951 36.092L11.9661 29.001H26.6758L33.2951 36.092" stroke="black"/>
<path d="M15.5 29V24H19.7778L22.5 29" stroke="black"/>
<path d="M59 34H43V39H59" stroke="black"/>
<path d="M47 45.5L47 39L44.5 39L44.5 45" stroke="black"/>
<path d="M57 45L57 39L54.5 39L54.5 44.625" stroke="black"/>
<path d="M28 15L40 15" stroke="black" stroke-miterlimit="10"/>
<path d="M36 11L40 15L36 19" stroke="black" stroke-miterlimit="10"/>
</svg>
