<svg width="63" height="62" viewBox="0 0 63 62" fill="none" xmlns="http://www.w3.org/2000/svg">
<path d="M41.5 15L53.5 15" stroke="black" stroke-miterlimit="10"/>
<path d="M49.5 11L53.5 15L49.5 19" stroke="black" stroke-miterlimit="10"/>
<path d="M3.5 46L7.31001 44.6182C8.41138 44.2188 9.61803 44.2188 10.7194 44.6182L12.8247 45.3818C13.9261 45.7812 15.1327 45.7812 16.2341 45.3818L18.3394 44.6182C19.4408 44.2188 20.6474 44.2188 21.7488 44.6182L23.8541 45.3818C24.9555 45.7812 26.1621 45.7812 27.2635 45.3818L29.3688 44.6182C30.4702 44.2188 31.6769 44.2188 32.7782 44.6182L34.8835 45.3818C35.9849 45.7812 37.1916 45.7812 38.2929 45.3818L40.3983 44.6182C41.4996 44.2188 42.7063 44.2188 43.8076 44.6182L45.9664 45.4012C47.0352 45.7888 48.2042 45.8006 49.2806 45.4346L51.9063 44.5419C52.9402 44.1903 54.0609 44.187 55.0969 44.5323L59.5 46" stroke="black"/>
<path d="M22 44.9988L25.1 36.1003H57.5L46.7 45.555" stroke="black"/>
<path d="M27.4951 36.092L28.9661 29.001H43.6758L50.2951 36.092" stroke="black"/>
<path d="M32.5 29V24H36.7778L39.5 29" stroke="black"/>
<path d="M3.5 34H19.5V39H3.5" stroke="black"/>
<path d="M15.5 45.5L15.5 39L18 39L18 45" stroke="black"/>
<path d="M5.5 45L5.5 39L8 39L8 44.625" stroke="black"/>
</svg>
