<svg id="Layer_2" data-name="Layer 2" xmlns="http://www.w3.org/2000/svg" viewBox="0 0 32 32"><defs><style>.cls-1{fill:#3c103f;}</style></defs><title>ICN-WEB-location-purple-v1-01-32x32</title><path class="cls-1" d="M16,2A11.19,11.19,0,0,0,4.8,13.2C4.8,20.18,16,30,16,30s11.2-9.82,11.2-16.8A11.19,11.19,0,0,0,16,2Zm0,24.17c-3.81-3.74-8.4-9.42-8.4-13a8.4,8.4,0,0,1,16.8,0C24.4,16.74,19.81,22.42,16,26.17Z"/><path class="cls-1" d="M16,9a4,4,0,0,0-.7.06A4.2,4.2,0,0,0,16,17.4a4,4,0,0,0,.7-.06A4.2,4.2,0,0,0,16,9Zm1.13,5a1.38,1.38,0,0,1-.91.57l-.24,0a1.39,1.39,0,0,1-1.37-1.17,1.4,1.4,0,0,1,1.15-1.61l.24,0A1.39,1.39,0,0,1,17.38,13,1.37,1.37,0,0,1,17.14,14Z"/></svg>