<svg width="62" height="62" viewBox="0 0 62 62" fill="none" xmlns="http://www.w3.org/2000/svg">
<line x1="8.5" y1="25" x2="8.5" y2="51" stroke="black"/>
<line x1="53.5" y1="39" x2="53.5" y2="51" stroke="black"/>
<line x1="8" y1="46.5" x2="54" y2="46.5" stroke="black"/>
<line x1="8" y1="40.5" x2="54" y2="40.5" stroke="black"/>
<circle cx="16" cy="34.5" r="4" stroke="black"/>
<path d="M23.5 33C23.5 31.067 25.067 29.5 27 29.5H42C48.1837 29.5 53.2275 34.3807 53.4893 40.5H23.5V33Z" stroke="black"/>
<mask id="path-7-inside-1_3405_2506" fill="white">
<path fill-rule="evenodd" clip-rule="evenodd" d="M19.0002 17.5078C18.4294 17.7952 17.7803 17.9577 17.0918 17.9577C14.81 17.9577 12.9602 16.1727 12.9602 13.9708C12.9602 13.254 13.1563 12.5813 13.4995 12C11.4924 12.4792 10 14.2842 10 16.4377C10 18.9574 12.043 21 14.5632 21C16.7148 21 18.5186 19.5112 19.0002 17.5078Z"/>
</mask>
<path d="M19.0002 17.5078L19.7295 17.6831L20.1075 16.1107L18.663 16.8379L19.0002 17.5078ZM13.4995 12L14.1453 12.3813L15.0434 10.8604L13.3253 11.2705L13.4995 12ZM18.663 16.8379C18.1951 17.0735 17.6613 17.2077 17.0918 17.2077V18.7077C17.8992 18.7077 18.6637 18.517 19.3375 18.1777L18.663 16.8379ZM17.0918 17.2077C15.1988 17.2077 13.7102 15.7335 13.7102 13.9708H12.2102C12.2102 16.6119 14.4212 18.7077 17.0918 18.7077V17.2077ZM13.7102 13.9708C13.7102 13.3929 13.8679 12.8513 14.1453 12.3813L12.8537 11.6187C12.4447 12.3113 12.2102 13.1151 12.2102 13.9708H13.7102ZM10.75 16.4377C10.75 14.6393 11.9963 13.1299 13.6736 12.7295L13.3253 11.2705C10.9884 11.8284 9.25 13.9291 9.25 16.4377H10.75ZM14.5632 20.25C12.4571 20.25 10.75 18.5431 10.75 16.4377H9.25C9.25 19.3718 11.629 21.75 14.5632 21.75V20.25ZM18.271 17.3325C17.8686 19.0065 16.3603 20.25 14.5632 20.25V21.75C17.0693 21.75 19.1686 20.016 19.7295 17.6831L18.271 17.3325Z" fill="black" mask="url(#path-7-inside-1_3405_2506)"/>
</svg>
