<svg id="Layer_2" data-name="Layer 2" xmlns="http://www.w3.org/2000/svg" viewBox="0 0 8 8"><defs><style>.cls-1{fill:#3c103f;}</style></defs><title>ICN-WEB-SettingSail-ink-v1-01-8x8</title><rect class="cls-1" x="1.16" y="3.1" width="4.8" height="0.6"/><path class="cls-1" d="M1.16,4V6.7a.3.3,0,0,0,.3.3H4.62a.3.3,0,0,0,.23-.11l1.92-2.4A.3.3,0,0,0,6.54,4ZM4.47,6.4H1.76V4.6H5.91Z"/><polygon class="cls-1" points="2.36 2.8 2.66 2.8 3.26 2.8 4.76 2.8 4.76 2.2 3.26 2.2 3.26 1 2.66 1 2.66 2.2 2.36 2.2 2.36 1.6 1.76 1.6 1.76 2.2 1.16 2.2 1.16 2.8 1.76 2.8 2.36 2.8"/></svg>