<?xml version="1.0" encoding="UTF-8" standalone="no"?>
<svg xmlns="http://www.w3.org/2000/svg" xmlns:xlink="http://www.w3.org/1999/xlink" xmlns:serif="http://www.serif.com/" width="100%" height="100%" viewBox="0 0 928 319" version="1.1" xml:space="preserve" style="fill-rule:evenodd;clip-rule:evenodd;stroke-linejoin:round;stroke-miterlimit:2;">
  <path d="M421.425,237.383c0,-2.804 -1.25,-7.5 -9.608,-7.5l-8.671,0l-0,26.871l4.025,0l-0,-11.825l3.729,0l6.708,11.738l0.046,0.079l4.871,-0l-7.454,-12.234c3.623,-0.374 6.397,-3.486 6.354,-7.129Zm-14.254,-4.05l4.383,0c2.65,0 5.809,0.7 5.809,4.046c-0,3.404 -3.3,4.121 -6.071,4.121l-4.121,-0l-0,-8.167Z" style="fill:#001744;fill-rule:nonzero;"></path>
  <rect x="435.921" y="229.875" width="4.025" height="26.871" style="fill:#001744;"></rect>
  <path d="M464.858,251.488l-7.9,-21.509l-0.037,-0.104l-4.463,0l10.438,26.771l0.037,0.1l3.663,-0l10.467,-26.658l0.087,-0.213l-4.354,0l-7.938,21.613Z" style="fill:#001744;fill-rule:nonzero;"></path>
  <path d="M493.683,244.592l12.53,-0l-0,-3.5l-12.53,-0l0,-7.642l13.313,0l-0,-3.575l-17.342,0l0,26.871l17.909,-0l-0,-3.613l-13.88,0l0,-8.541Z" style="fill:#001744;fill-rule:nonzero;"></path>
  <path d="M540.225,237.383c0,-2.804 -1.25,-7.5 -9.608,-7.5l-8.671,0l-0,26.871l4.025,0l-0,-11.825l3.729,0l6.708,11.738l0.046,0.079l4.871,-0l-7.454,-12.234c3.623,-0.374 6.397,-3.486 6.354,-7.129Zm-14.254,-4.05l4.383,0c2.65,0 5.808,0.7 5.808,4.046c0,3.404 -3.3,4.121 -6.07,4.121l-4.121,-0l-0,-8.167Z" style="fill:#001744;fill-rule:nonzero;"></path>
  <path d="M593.75,250.217l-0.087,0.129c-1.597,2.26 -4.235,3.564 -7,3.458c-0.033,0 -0.066,0.001 -0.098,0.001c-5.351,-0 -9.755,-4.404 -9.755,-9.755c0,-0.26 0.011,-0.52 0.032,-0.779c-0.013,-0.203 -0.019,-0.406 -0.019,-0.609c-0,-5.426 4.465,-9.891 9.892,-9.891c0.02,-0 0.04,-0 0.06,-0c2.51,-0.035 4.901,1.09 6.475,3.046l0.096,0.133l3.054,-2.35l0.121,-0.092l-0.088,-0.121c-2.407,-2.797 -5.967,-4.342 -9.654,-4.191c-0.102,-0.002 -0.204,-0.003 -0.305,-0.003c-7.742,-0 -14.113,6.37 -14.113,14.112c0,7.742 6.371,14.113 14.113,14.113c0.051,-0 0.103,-0.001 0.155,-0.001c4.004,0.146 7.836,-1.673 10.254,-4.867l0.096,-0.129l-3.096,-2.117l-0.133,-0.087Z" style="fill:#001744;fill-rule:nonzero;"></path>
  <path d="M628.425,237.383c0,-2.804 -1.25,-7.5 -9.608,-7.5l-8.671,0l-0,26.871l4.025,0l-0,-11.825l3.729,0l6.708,11.738l0.046,0.079l4.871,-0l-7.442,-12.234c3.619,-0.38 6.386,-3.49 6.342,-7.129Zm-14.258,-4.05l4.383,0c2.65,0 5.808,0.7 5.808,4.046c0,3.404 -3.3,4.121 -6.07,4.121l-4.121,-0l-0,-8.167Z" style="fill:#001744;fill-rule:nonzero;"></path>
  <path d="M659.65,246.538c0.028,0.243 0.042,0.488 0.042,0.734c-0,3.559 -2.929,6.487 -6.488,6.487c-3.559,0 -6.487,-2.928 -6.487,-6.487c-0,-0.246 0.014,-0.491 0.041,-0.734l0,-16.667l-4.029,-0l0,16.887c-0.001,0.07 -0.002,0.14 -0.002,0.209c0,5.747 4.729,10.475 10.475,10.475c5.746,0 10.475,-4.728 10.475,-10.475c0,-0.069 -0.001,-0.139 -0.002,-0.209l-0,-16.883l-4.025,0l-0,16.662Z" style="fill:#001744;fill-rule:nonzero;"></path>
  <rect x="679.371" y="229.875" width="4.025" height="26.871" style="fill:#001744;"></rect>
  <path d="M707.763,241.279c-2.971,-0.962 -5.317,-1.729 -5.317,-4.5c0.15,-2.347 2.122,-4.197 4.474,-4.197c0.176,-0 0.351,0.01 0.526,0.031c1.968,-0.037 3.842,0.858 5.05,2.412l0.104,0.146l2.862,-2.779l-0.1,-0.113c-2.044,-2.043 -4.839,-3.161 -7.729,-3.091c-2.235,-0.05 -4.432,0.59 -6.291,1.833c-1.923,1.337 -3.045,3.559 -2.979,5.9c-0,5 3.62,6.558 7.012,7.612l0.146,0.046c3.246,1.008 6.046,1.879 6.046,4.946c-0.126,2.458 -2.183,4.413 -4.644,4.413c-0.176,0 -0.352,-0.01 -0.527,-0.03c-2.313,-0.001 -4.483,-1.141 -5.796,-3.046l-0.096,-0.145l-3.137,2.65l0.096,0.121c2.212,2.572 5.47,4.014 8.862,3.92c0.31,0.035 0.622,0.052 0.934,0.052c4.563,0 8.336,-3.711 8.412,-8.273c0.012,-5.404 -4.371,-6.787 -7.908,-7.908Z" style="fill:#001744;fill-rule:nonzero;"></path>
  <path d="M734.396,244.592l12.529,-0l0,-3.5l-12.529,-0l-0,-7.642l13.312,0l0,-3.575l-17.341,0l-0,26.871l17.908,-0l0,-3.613l-13.879,0l-0,-8.541Z" style="fill:#001744;fill-rule:nonzero;"></path>
  <path d="M771.138,241.279c-2.971,-0.962 -5.317,-1.729 -5.317,-4.5c0.15,-2.347 2.122,-4.197 4.474,-4.197c0.176,-0 0.351,0.01 0.526,0.031c1.968,-0.037 3.842,0.858 5.05,2.412l0.104,0.146l2.862,-2.779l-0.099,-0.113c-2.045,-2.043 -4.84,-3.161 -7.73,-3.091c-2.235,-0.05 -4.432,0.59 -6.291,1.833c-1.923,1.337 -3.045,3.559 -2.979,5.9c-0,5 3.62,6.558 7.012,7.612l0.146,0.046c3.246,1.008 6.046,1.879 6.046,4.946c-0.126,2.458 -2.183,4.413 -4.644,4.413c-0.176,0 -0.352,-0.01 -0.527,-0.03c-2.313,-0.001 -4.483,-1.141 -5.796,-3.046l-0.096,-0.145l-3.137,2.65l0.096,0.121c2.212,2.572 5.47,4.014 8.862,3.92c0.31,0.035 0.622,0.052 0.934,0.052c4.563,0 8.336,-3.711 8.412,-8.273c0.012,-5.404 -4.371,-6.787 -7.908,-7.908Z" style="fill:#001744;fill-rule:nonzero;"></path>
  <path d="M280.408,120.488l14.055,34.983l13.687,2.304l-23.254,-55.883l-2.492,-0l-19.412,48.283l5.241,0.883l12.175,-30.571Z" style="fill:#001744;fill-rule:nonzero;"></path>
  <path d="M315.575,175.613l-6.15,-14.78l-8.421,1.23l-3.925,0.575l1.059,2.883l3.595,8.658c1.293,2.903 2.094,6.001 2.371,9.167c-0.025,1.271 -0.68,2.449 -1.746,3.142c-1.495,0.92 -2.37,1.179 -6.858,1.179l0,2.5l31.8,-0l0,-2.5c-6.467,-0.792 -8.233,-3.542 -11.725,-12.054Z" style="fill:#001744;fill-rule:nonzero;"></path>
  <path d="M257.083,182.292c0.085,-1.881 0.463,-3.737 1.121,-5.5l3.454,-8.992l-6.12,0.892c-6.28,15.575 -7.738,18.229 -14.542,18.966l-0,2.5l24.837,0l0,-2.5c-6.004,0.005 -8.75,-1.304 -8.75,-5.366Z" style="fill:#001744;fill-rule:nonzero;"></path>
  <path d="M439.446,177.113l-0,-50.98c-0,-8.75 1.746,-10.708 10.125,-10.833l-0,-2.212l-23.163,-0l-25.72,58.437l-26.888,-58.429l-23.046,-0l0,2.212c9.546,0.584 11.058,2.084 11.058,10.942l0,46.325c0,13.038 -1.629,14.667 -11.291,15.363l-0,2.212l27.237,0l0,-2.212c-8.962,-0.467 -10.833,-2.563 -10.833,-15.363l0,-46.325l29.325,63.9l1.629,0l29.679,-66.579l0,52.262c0,9.663 -1.279,11.525 -10.475,12.105l0,2.212l32.592,0l0,-2.212c-8.483,-0.58 -10.229,-2.559 -10.229,-10.825Z" style="fill:#001744;fill-rule:nonzero;"></path>
  <path d="M541.404,177.229l-28.633,-65.533l-2.329,-0l-23.975,56.804c-6.863,16.296 -7.917,18.75 -14.667,19.438l0,2.212l23.167,0l-0,-2.212c-5.592,-0 -8.154,-1.163 -8.154,-4.771c0.079,-1.676 0.433,-3.327 1.045,-4.888l5.359,-13.271l30.491,0l4.771,10.942c1.204,2.568 1.952,5.326 2.213,8.15c-0.035,1.145 -0.649,2.198 -1.629,2.792c-1.396,0.833 -2.213,1.045 -6.4,1.045l-0,2.213l29.683,0l-0,-2.213c-6.05,-0.695 -7.679,-3.141 -10.942,-10.708Zm-46.204,-16.996l13.379,-32.008l13.5,32.008l-26.879,0Z" style="fill:#001744;fill-rule:nonzero;"></path>
  <path d="M822.5,115.308c9.429,0.584 10.942,3.142 10.942,15.134l-0,30.612c-0,9.429 -0.467,14.084 -4.304,18.75c-4.652,4.696 -11.091,7.195 -17.692,6.867c-5.463,0.3 -10.827,-1.585 -14.9,-5.238c-4.654,-4.537 -5.121,-9.779 -5.121,-18.858l0,-36.325c0,-8.75 1.279,-10.125 10.592,-10.942l-0,-2.212l-32.942,-0l0,2.212c9.196,0.7 10.475,1.98 10.475,9.78l0,36.083c0,12.337 3.025,20.487 9.429,25.258c5.829,3.907 12.784,5.789 19.788,5.354c10.708,0 18.625,-2.916 23.512,-8.496c5.238,-5.937 6.288,-12.22 6.288,-23.512l-0,-29.683c-0,-11.059 1.162,-13.85 10.941,-14.784l0,-2.212l-27.008,-0l0,2.212Z" style="fill:#001744;fill-rule:nonzero;"></path>
  <path d="M909.217,147.2c-12.221,-7.083 -20.834,-11.988 -20.834,-19.904c-0.002,-0.088 -0.003,-0.176 -0.003,-0.265c0,-5.943 4.89,-10.833 10.833,-10.833c0.309,0 0.617,0.013 0.925,0.04c6.731,0.221 12.984,3.584 16.879,9.079c2.303,3.292 3.926,7.013 4.771,10.941l2.916,0l-2.562,-24.791l-2.446,-0c-0.467,2.562 -1.746,3.958 -3.725,3.958c-1.78,-0.138 -3.518,-0.611 -5.121,-1.396c-3.826,-1.77 -8.006,-2.646 -12.221,-2.562c-0.338,-0.018 -0.677,-0.027 -1.016,-0.027c-10.572,-0 -19.271,8.699 -19.271,19.271c0,0.376 0.011,0.751 0.033,1.126c0,7.217 3.725,14.434 14.2,20c7.141,3.524 13.729,8.072 19.554,13.5c2.32,2.483 3.538,5.802 3.375,9.196c0.001,0.065 0.002,0.13 0.002,0.195c-0,7.066 -5.814,12.88 -12.88,12.88c-0.324,-0 -0.648,-0.013 -0.972,-0.037c-11.058,-0 -18.625,-6.517 -23.979,-20.604l-2.563,-0l3.375,24.675l2.563,-0c-0.017,-0.14 -0.026,-0.28 -0.026,-0.42c0,-1.826 1.46,-3.347 3.284,-3.422c1.887,0.077 3.742,0.511 5.467,1.279c4.348,1.837 9.031,2.749 13.75,2.679c13.5,0 23.75,-8.75 23.75,-21.766c-0.017,-8.825 -5.721,-15.575 -18.058,-22.792Z" style="fill:#001744;fill-rule:nonzero;"></path>
  <path d="M715.883,185.833l-4.191,0c-8.613,0 -11.754,-0.583 -11.754,-5.47l-0,-28.28l17.562,0c10,0 11.754,1.513 13.154,11.292l2.679,0l0,-27.233l-2.675,-0c-1.395,9.196 -3.141,11.175 -13.154,11.175l-17.575,-0l0,-25.609c0,-3.725 0.834,-4.191 4.075,-4.191l15.25,-0c13.5,-0 16.179,1.746 17.917,12.221l2.917,-0l-0.467,-16.646l-61.683,-0l-0,2.212c8.75,0.467 10.125,2.213 10.125,10.834l-0,50.75c-0,8.962 -1.163,10.475 -10.125,11.058l-0,2.212l62.737,0l5.354,-19.67l-3.258,-0c-5.238,12.329 -10.242,15.345 -26.888,15.345Z" style="fill:#001744;fill-rule:nonzero;"></path>
  <path d="M640.925,123.688c-7.917,-6.867 -19.904,-10.592 -34.921,-10.592l-31.421,-0l0,2.212c8.846,0.584 10.242,1.629 10.242,10.834l0,50.625c0,9.079 -1.162,10.591 -10.242,11.175l0,2.212l32.709,0c10.281,0.311 20.446,-2.27 29.333,-7.45c10.478,-6.905 16.519,-18.895 15.833,-31.425c0.564,-10.468 -3.688,-20.639 -11.533,-27.591Zm-13.271,56.104c-6.983,4.654 -13.391,6.054 -25.375,6.054c-4.541,-0 -5.587,-1.396 -5.587,-5.471l-0,-58.083c-0,-3.842 1.746,-4.888 6.166,-4.888c11.646,0 18.975,1.979 25.834,8.034c7.628,6.624 11.725,16.456 11.058,26.537c0.013,13.15 -3.946,22.346 -12.096,27.817Z" style="fill:#001744;fill-rule:nonzero;"></path>
  <path d="M159.45,0l0,159.446l-72.817,-72.404l30.217,55.266l-116.85,17.138l159.45,-0l-72.404,72.821l55.262,-30.221l17.142,116.85l0,-159.45l20.304,20.308l-3.437,23.575l56.975,29.55l-53.434,-53.137l139.038,-20.296l-159.446,-0l20.304,-20.3l23.575,3.437l29.554,-56.979l-53.171,53.471l-20.262,-139.075Z" style="fill:#bb9959;fill-rule:nonzero;"></path>
</svg>
